<svg viewBox="0 0 1024 1024" version="1.1" xmlns="http://www.w3.org/2000/svg" xmlns:xlink="http://www.w3.org/1999/xlink">
<path d="M968.491211 695.181434V328.800646a145.610252 145.610252 0 0 0-72.805126-126.103393L578.388172 19.523925a145.576119 145.576119 0 0 0-145.627319 0L115.480006 202.697253A145.644385 145.644385 0 0 0 42.67488 328.817712v366.363722a145.627318 145.627318 0 0 0 72.805126 126.12046l317.297914 183.173328a145.644385 145.644385 0 0 0 145.627318 0l317.263781-183.190394a145.593185 145.593185 0 0 0 72.822192-126.103394" fill="#53BC62"></path>
<path d="M413.714787 255.99552H315.736768a102.398208 102.398208 0 0 0-102.398208 102.398208v320.847719a102.398208 102.398208 0 0 0 102.398208 102.398208h80.894584l3.839933-0.068266a102.449407 102.449407 0 0 0 94.086887-72.310201l1.348243-4.880981 23.858782 33.859674A102.398208 102.398208 0 0 0 603.475733 781.639655H701.436685a102.398208 102.398208 0 0 0 102.398208-102.398208V358.393728a102.398208 102.398208 0 0 0-102.398208-102.398208h-80.894584l-3.839933 0.068266a102.449407 102.449407 0 0 0-94.086887 72.310201l-1.36531 4.863915-23.841716-33.842608A102.398208 102.398208 0 0 0 413.69772 255.99552z" fill="#3DA44B"></path>
<path d="M430.764088 679.241447v-131.888892a17.066368 17.066368 0 0 1 31.009591-9.830228l113.781475 161.379576a34.132736 34.132736 0 0 0 27.903512 14.47228H701.436685a34.132736 34.132736 0 0 0 34.132736-34.132736V358.393728a34.132736 34.132736 0 0 0-34.132736-34.132736h-80.894584a34.132736 34.132736 0 0 0-34.132736 34.132736v131.888892a17.066368 17.066368 0 0 1-31.009591 9.830228l-113.781476-161.379576A34.132736 34.132736 0 0 0 413.69772 324.260992H315.736768a34.132736 34.132736 0 0 0-34.132736 34.132736v320.847719a34.132736 34.132736 0 0 0 34.132736 34.132736h80.894584a34.132736 34.132736 0 0 0 34.132736-34.132736z" fill="#FFFFFF"></path>
</svg>